<svg width="97" height="63" viewBox="0 0 97 63" fill="none" xmlns="http://www.w3.org/2000/svg">
<g clip-path="url(#clip0_41_259)">
<path d="M91.9202 60.5H5.07942L48.4971 4.09826L91.9202 60.5Z" fill="#808285" stroke="white" stroke-width="5"/>
<path d="M66.4865 38C66.3232 38 66.1616 38 66 38.0104V46.1472C67.3313 46.5853 68.4892 47.4251 69.3096 48.5476C70.13 49.6702 70.5715 51.0187 70.5715 52.4022C70.5715 53.7858 70.13 55.1342 69.3096 56.2568C68.4892 57.3794 67.3313 58.2191 66 58.6572V58.9879C66.1616 58.9879 66.3232 59 66.4865 59C69.2872 58.9645 71.961 57.843 73.9288 55.8782C75.8966 53.9134 77 51.2636 77 48.5026C77 45.7416 75.8966 43.0918 73.9288 41.127C71.961 39.1622 69.2872 38.0406 66.4865 38.0052V38Z" fill="white"/>
<path d="M30.5135 59C30.6768 59 30.8384 59 31 58.9879V50.8517C29.6689 50.4132 28.5113 49.5732 27.6912 48.4506C26.871 47.3281 26.4297 45.9797 26.4297 44.5964C26.4297 43.213 26.871 41.8647 27.6912 40.7421C28.5113 39.6195 29.6689 38.7796 31 38.341V38.0121C30.8384 38.0035 30.6768 38 30.5135 38C27.7128 38.0355 25.039 39.1569 23.0712 41.1216C21.1034 43.0862 20 45.7358 20 48.4965C20 51.2573 21.1034 53.9069 23.0712 55.8715C25.039 57.8361 27.7128 58.9576 30.5135 58.9931V59Z" fill="white"/>
<path d="M45.4865 59C45.3232 59 45.1616 59 45 58.9879V50.8517C46.3311 50.4132 47.4886 49.5732 48.3088 48.4506C49.129 47.3281 49.5703 45.9797 49.5703 44.5964C49.5703 43.213 49.129 41.8647 48.3088 40.7421C47.4886 39.6195 46.3311 38.7796 45 38.341V38.0121C45.1616 38.0035 45.3232 38 45.4865 38C48.2872 38.0355 50.961 39.1569 52.9288 41.1216C54.8966 43.0862 56 45.7358 56 48.4965C56 51.2573 54.8966 53.9069 52.9288 55.8715C50.961 57.8361 48.2872 58.9576 45.4865 58.9931V59Z" fill="white"/>
<path d="M55 30H65V54.5299C65 55.7154 64.5128 56.8524 63.6456 57.6907C62.7784 58.529 61.6022 59 60.3757 59H55V30Z" fill="white"/>
<path d="M35 30H45V54.5159C45 55.7052 44.5106 56.8457 43.6395 57.6866C42.7684 58.5276 41.5869 59 40.3549 59H35V30.0072V30Z" fill="white"/>
<path d="M33.1655 49.5312H28.1747V59.1439H33.1655V49.5312Z" fill="white"/>
<path d="M32.5 59C36.0899 59 39 56.0898 39 52.5C39 48.9101 36.0899 46 32.5 46C28.9102 46 26 48.9101 26 52.5C26 56.0898 28.9102 59 32.5 59Z" fill="#F15A22"/>
</g>
<defs>
<clipPath id="clip0_41_259">
<rect width="97" height="63" fill="white"/>
</clipPath>
</defs>
</svg>
