<svg width="26" height="25" viewBox="0 0 26 25" fill="none" xmlns="http://www.w3.org/2000/svg">
<path d="M8.72223 2.03711H17.2778C20.537 2.03711 23.1852 4.68526 23.1852 7.94452V16.5001C23.1852 18.0668 22.5628 19.5694 21.455 20.6772C20.3471 21.7851 18.8445 22.4075 17.2778 22.4075H8.72223C5.46297 22.4075 2.81482 19.7593 2.81482 16.5001V7.94452C2.81482 6.37778 3.43721 4.8752 4.54506 3.76735C5.65291 2.6595 7.15549 2.03711 8.72223 2.03711M8.51852 4.07415C7.54606 4.07415 6.61343 4.46046 5.9258 5.14809C5.23817 5.83572 4.85186 6.76835 4.85186 7.74081V16.7038C4.85186 18.7306 6.49167 20.3704 8.51852 20.3704H17.4815C18.4539 20.3704 19.3866 19.9841 20.0742 19.2965C20.7618 18.6089 21.1482 17.6762 21.1482 16.7038V7.74081C21.1482 5.71396 19.5083 4.07415 17.4815 4.07415H8.51852ZM18.3472 5.60192C18.6849 5.60192 19.0087 5.73606 19.2475 5.97482C19.4862 6.21358 19.6204 6.53741 19.6204 6.87507C19.6204 7.21273 19.4862 7.53656 19.2475 7.77532C19.0087 8.01409 18.6849 8.14822 18.3472 8.14822C18.0096 8.14822 17.6857 8.01409 17.447 7.77532C17.2082 7.53656 17.0741 7.21273 17.0741 6.87507C17.0741 6.53741 17.2082 6.21358 17.447 5.97482C17.6857 5.73606 18.0096 5.60192 18.3472 5.60192ZM13 7.1297C14.3506 7.1297 15.646 7.66624 16.601 8.62129C17.5561 9.57633 18.0926 10.8717 18.0926 12.2223C18.0926 13.5729 17.5561 14.8683 16.601 15.8233C15.646 16.7783 14.3506 17.3149 13 17.3149C11.6494 17.3149 10.354 16.7783 9.399 15.8233C8.44395 14.8683 7.90741 13.5729 7.90741 12.2223C7.90741 10.8717 8.44395 9.57633 9.399 8.62129C10.354 7.66624 11.6494 7.1297 13 7.1297M13 9.16674C12.1896 9.16674 11.4124 9.48866 10.8394 10.0617C10.2664 10.6347 9.94445 11.4119 9.94445 12.2223C9.94445 13.0327 10.2664 13.8099 10.8394 14.3829C11.4124 14.9559 12.1896 15.2779 13 15.2779C13.8104 15.2779 14.5876 14.9559 15.1606 14.3829C15.7336 13.8099 16.0556 13.0327 16.0556 12.2223C16.0556 11.4119 15.7336 10.6347 15.1606 10.0617C14.5876 9.48866 13.8104 9.16674 13 9.16674Z" fill="white"/>
</svg>
