<svg width="25" height="25" viewBox="0 0 25 25" fill="none" xmlns="http://www.w3.org/2000/svg">
<path d="M12.7207 3.32717e-05C9.48909 0.0151144 6.39495 1.30946 4.11516 3.59994C1.83537 5.89042 0.555507 8.99058 0.555542 12.2223C0.555542 15.4638 1.84324 18.5726 4.13535 20.8647C6.42746 23.1568 9.53623 24.4445 12.7778 24.4445C16.0193 24.4445 19.1281 23.1568 21.4202 20.8647C23.7123 18.5726 25 15.4638 25 12.2223C25 8.98072 23.7123 5.87195 21.4202 3.57984C19.1281 1.28773 16.0193 3.32717e-05 12.7778 3.32717e-05C12.7588 -1.10906e-05 12.7397 -1.10906e-05 12.7207 3.32717e-05V3.32717e-05ZM17.7746 7.35781C17.8765 7.35577 18.1016 7.38124 18.2482 7.5004C18.3457 7.58504 18.4078 7.70317 18.4224 7.83142C18.4387 7.92615 18.4591 8.14309 18.4428 8.31216C18.2594 10.2453 17.4629 14.9346 17.0576 17.0989C16.8865 18.0156 16.5493 18.3222 16.2224 18.3517C15.5135 18.4179 14.9747 17.8832 14.2872 17.433C13.2117 16.7272 12.6036 16.2882 11.5596 15.5997C10.3527 14.8052 11.1349 14.3673 11.8224 13.6543C12.0027 13.4669 15.1295 10.6222 15.1906 10.3645C15.1978 10.3319 15.2049 10.2117 15.1336 10.1486C15.0623 10.0854 14.9564 10.1068 14.88 10.1241C14.772 10.1486 13.0538 11.2852 9.72526 13.5311C9.23638 13.8672 8.79536 14.0301 8.39915 14.0199C7.96323 14.0118 7.12397 13.7745 6.49962 13.5718C5.73369 13.3223 5.12563 13.1909 5.1786 12.7682C5.2061 12.5482 5.50962 12.3231 6.08814 12.0929C9.65091 10.5407 12.0261 9.51707 13.2157 9.02309C16.6094 7.61142 17.3153 7.36596 17.7746 7.35781V7.35781Z" fill="white"/>
</svg>
