<svg width="25" height="25" viewBox="0 0 25 25" fill="none" xmlns="http://www.w3.org/2000/svg">
<path d="M19.4028 5.00106C18.469 4.05784 17.3567 3.30998 16.1309 2.80111C14.9051 2.29224 13.5902 2.03255 12.263 2.03717C6.70184 2.03717 2.16943 6.56958 2.16943 12.1307C2.16943 13.9131 2.63795 15.6446 3.51388 17.1724L2.08795 22.4075L7.43517 21.002C8.91203 21.8066 10.5722 22.2344 12.263 22.2344C17.8241 22.2344 22.3565 17.702 22.3565 12.1409C22.3565 9.4418 21.3074 6.90569 19.4028 5.00106ZM12.263 20.5233C10.7555 20.5233 9.27869 20.1159 7.98517 19.352L7.67962 19.1687L4.50184 20.0038L5.34721 16.9075L5.14351 16.5918C4.30603 15.2545 3.86134 13.7086 3.86017 12.1307C3.86017 7.50661 7.62869 3.7381 12.2528 3.7381C14.4935 3.7381 16.6018 4.61402 18.1805 6.20291C18.9622 6.98102 19.5817 7.90655 20.0031 8.92584C20.4244 9.94514 20.6393 11.0379 20.6352 12.1409C20.6555 16.7649 16.887 20.5233 12.263 20.5233ZM16.8667 14.2492C16.612 14.127 15.3694 13.5159 15.1454 13.4242C14.9111 13.3427 14.7481 13.302 14.575 13.5464C14.4018 13.8011 13.9231 14.3714 13.7805 14.5344C13.638 14.7075 13.4852 14.7279 13.2305 14.5955C12.9759 14.4733 12.1611 14.1983 11.2037 13.3427C10.45 12.6705 9.95091 11.8455 9.79814 11.5909C9.65554 11.3362 9.77777 11.2038 9.91017 11.0714C10.0222 10.9594 10.1648 10.7761 10.287 10.6335C10.4092 10.4909 10.4602 10.3788 10.5417 10.2159C10.6231 10.0427 10.5824 9.90013 10.5213 9.77791C10.4602 9.65569 9.95091 8.4131 9.74721 7.90384C9.54351 7.41495 9.32962 7.47606 9.17684 7.46587H8.68795C8.5148 7.46587 8.24999 7.52699 8.01573 7.78161C7.79166 8.03624 7.1398 8.64736 7.1398 9.88995C7.1398 11.1325 8.04629 12.3344 8.16851 12.4974C8.29073 12.6705 9.95091 15.2168 12.4768 16.3066C13.0778 16.5714 13.5463 16.7242 13.913 16.8362C14.5139 17.0298 15.0639 16.9992 15.5018 16.9381C15.9907 16.8668 16.9991 16.327 17.2028 15.7362C17.4167 15.1455 17.4167 14.6464 17.3454 14.5344C17.2741 14.4224 17.1213 14.3714 16.8667 14.2492Z" fill="white"/>
</svg>
