<svg width="30" height="30" viewBox="0 0 30 30" fill="none" xmlns="http://www.w3.org/2000/svg">
<g clip-path="url(#clip0_45_70)">
<path d="M24 1.625H22.125V0.5C22.125 0.201631 22.0065 -0.0845168 21.7955 -0.295495C21.5845 -0.506474 21.2984 -0.625 21 -0.625C20.7016 -0.625 20.4155 -0.506474 20.2045 -0.295495C19.9935 -0.0845168 19.875 0.201631 19.875 0.5V1.625H10.125V0.5C10.125 0.201631 10.0065 -0.0845168 9.79549 -0.295495C9.58451 -0.506474 9.29836 -0.625 8.99999 -0.625C8.70162 -0.625 8.41548 -0.506474 8.2045 -0.295495C7.99352 -0.0845168 7.87499 0.201631 7.87499 0.5V1.625H5.99999C5.24 1.53691 4.46993 1.62181 3.74739 1.87335C3.02484 2.12489 2.36853 2.53655 1.82753 3.07754C1.28654 3.61853 0.874882 4.27485 0.623345 4.9974C0.371808 5.71994 0.286908 6.49001 0.374994 7.25V23C0.286908 23.76 0.371808 24.5301 0.623345 25.2526C0.874882 25.9752 1.28654 26.6315 1.82753 27.1725C2.36853 27.7134 3.02484 28.1251 3.74739 28.3766C4.46993 28.6282 5.24 28.7131 5.99999 28.625H24C24.76 28.7131 25.5301 28.6282 26.2526 28.3766C26.9751 28.1251 27.6315 27.7134 28.1725 27.1725C28.7134 26.6315 29.1251 25.9752 29.3766 25.2526C29.6282 24.5301 29.7131 23.76 29.625 23V7.25C29.7131 6.49001 29.6282 5.71994 29.3766 4.9974C29.1251 4.27485 28.7134 3.61853 28.1725 3.07754C27.6315 2.53655 26.9751 2.12489 26.2526 1.87335C25.5301 1.62181 24.76 1.53691 24 1.625ZM5.99999 3.875H7.87499V5C7.87499 5.29837 7.99352 5.58452 8.2045 5.7955C8.41548 6.00647 8.70162 6.125 8.99999 6.125C9.29836 6.125 9.58451 6.00647 9.79549 5.7955C10.0065 5.58452 10.125 5.29837 10.125 5V3.875H19.875V5C19.875 5.29837 19.9935 5.58452 20.2045 5.7955C20.4155 6.00647 20.7016 6.125 21 6.125C21.2984 6.125 21.5845 6.00647 21.7955 5.7955C22.0065 5.58452 22.125 5.29837 22.125 5V3.875H24C26.3655 3.875 27.375 4.8845 27.375 7.25V8.375H2.62499V7.25C2.62499 4.8845 3.63449 3.875 5.99999 3.875ZM24 26.375H5.99999C3.63449 26.375 2.62499 25.3655 2.62499 23V10.625H27.375V23C27.375 25.3655 26.3655 26.375 24 26.375ZM19.545 15.2C19.6495 15.3045 19.7325 15.4285 19.789 15.5651C19.8456 15.7016 19.8748 15.848 19.8748 15.9958C19.8748 16.1435 19.8456 16.2899 19.789 16.4264C19.7325 16.563 19.6495 16.687 19.545 16.7915L14.55 21.8C14.4457 21.9047 14.3219 21.9877 14.1854 22.0444C14.049 22.1011 13.9027 22.1303 13.755 22.1303C13.6073 22.1303 13.461 22.1011 13.3246 22.0444C13.1881 21.9877 13.0642 21.9047 12.96 21.8L10.455 19.295C10.2563 19.0817 10.1481 18.7997 10.1532 18.5082C10.1584 18.2168 10.2764 17.9387 10.4826 17.7326C10.6887 17.5264 10.9668 17.4084 11.2582 17.4032C11.5497 17.3981 11.8317 17.5063 12.045 17.705L13.7505 19.409L17.9505 15.209C18.0543 15.1032 18.1781 15.0191 18.3146 14.9613C18.4511 14.9036 18.5977 14.8734 18.7459 14.8726C18.8941 14.8718 19.041 14.9003 19.1781 14.9565C19.3153 15.0126 19.44 15.0954 19.545 15.2Z" fill="#F25822"/>
</g>
<defs>
<clipPath id="clip0_45_70">
<rect width="30" height="30" fill="white"/>
</clipPath>
</defs>
</svg>
