<svg width="24" height="22" viewBox="0 0 24 22" fill="none" xmlns="http://www.w3.org/2000/svg">
<path fill-rule="evenodd" clip-rule="evenodd" d="M17.4798 0.186035C21.197 0.186035 24 3.21897 24 7.24092V14.9075C24 16.9659 23.2722 18.8257 21.9494 20.1451C20.7628 21.3272 19.2234 21.9535 17.4977 21.9535H6.49898C4.77656 21.9535 3.23833 21.3284 2.0506 20.1451C0.727814 18.8257 0 16.9659 0 14.9075V7.24092C0 3.21897 2.80298 0.186035 6.52019 0.186035H17.4798ZM17.4798 1.86045H6.52019C3.71274 1.86045 1.67442 4.12315 1.67442 7.24092V14.9075C1.67442 16.5183 2.22809 17.9572 3.23274 18.9585C4.09898 19.8236 5.22977 20.2791 6.50233 20.2791H17.4798C17.482 20.2768 17.491 20.2791 17.4977 20.2791C18.7714 20.2791 19.901 19.8236 20.7673 18.9585C21.773 17.9572 22.3256 16.5183 22.3256 14.9075V7.24092C22.3256 4.12315 20.2873 1.86045 17.4798 1.86045ZM19.2391 7.02749C19.5304 7.38581 19.4757 7.91269 19.1174 8.20516L14.1567 12.2372C13.5293 12.735 12.7792 12.984 12.0301 12.984C11.2833 12.984 10.5388 12.7373 9.91591 12.2439L4.9094 8.20739C4.54884 7.91716 4.49302 7.38916 4.78214 7.02972C5.07349 6.67139 5.60037 6.61446 5.95981 6.90358L10.9619 10.9356C11.5903 11.4334 12.4755 11.4334 13.1085 10.9311L18.0603 6.90581C18.4197 6.61223 18.9466 6.66804 19.2391 7.02749Z" fill="#F25822"/>
</svg>
