<svg width="20" height="24" viewBox="0 0 20 24" fill="none" xmlns="http://www.w3.org/2000/svg">
<path fill-rule="evenodd" clip-rule="evenodd" d="M10 0C15.5139 0 20 4.52 20 10.0764C20 16.9067 12.1745 23.6364 10 23.6364C7.82545 23.6364 0 16.9067 0 10.0764C0 4.52 4.48606 0 10 0ZM10 1.81818C5.48849 1.81818 1.81818 5.52364 1.81818 10.0764C1.81818 15.8691 8.63515 21.5127 10 21.8133C11.3648 21.5115 18.1818 15.8679 18.1818 10.0764C18.1818 5.52364 14.5115 1.81818 10 1.81818ZM10.0012 6.06061C12.1733 6.06061 13.9406 7.82788 13.9406 10.0012C13.9406 12.1733 12.1733 13.9394 10.0012 13.9394C7.82909 13.9394 6.06182 12.1733 6.06182 10.0012C6.06182 7.82788 7.82909 6.06061 10.0012 6.06061ZM10.0012 7.87879C8.83151 7.87879 7.88 8.8303 7.88 10.0012C7.88 11.1709 8.83151 12.1212 10.0012 12.1212C11.1709 12.1212 12.1224 11.1709 12.1224 10.0012C12.1224 8.8303 11.1709 7.87879 10.0012 7.87879Z" fill="#F25822"/>
</svg>
