<svg width="30" height="30" viewBox="0 0 30 30" fill="none" xmlns="http://www.w3.org/2000/svg">
<g clip-path="url(#clip0_44_1469)">
<path d="M29.121 2.16545H25.2713C25.2852 1.73907 25.293 1.3101 25.293 0.879149C25.293 0.3937 24.8993 0.000244141 24.4141 0.000244141H5.58585C5.10063 0.000244141 4.70694 0.3937 4.70694 0.879149C4.70694 1.3101 4.71474 1.73907 4.72868 2.16545H0.878905C0.393456 2.16545 0 2.55891 0 3.04436C0 6.9825 1.02926 10.6979 2.89804 13.5065C4.74538 16.2831 7.20608 17.8756 9.86436 18.0306C10.467 18.6863 11.104 19.221 11.7675 19.6289V23.5352H10.293C8.51049 23.5352 7.06053 24.9854 7.06053 26.7677V28.2421H6.99807C6.51257 28.2421 6.11917 28.6358 6.11917 29.121C6.11917 29.6065 6.51257 30 6.99807 30H23.0019C23.4874 30 23.8808 29.6065 23.8808 29.121C23.8808 28.6358 23.4874 28.2421 23.0019 28.2421H22.9394V26.7677C22.9394 24.9854 21.4895 23.5352 19.7069 23.5352H18.2325V19.6289C18.896 19.2212 19.5332 18.6863 20.1358 18.0306C22.7939 17.8756 25.2546 16.2831 27.1021 13.5065C28.9709 10.6979 29.9999 6.9825 29.9999 3.04436C29.9999 2.55891 29.6065 2.16545 29.121 2.16545ZM4.36153 12.5329C2.82005 10.2163 1.91437 7.18646 1.77638 3.92326H4.82688C5.14388 7.93464 6.08548 11.6425 7.55723 14.5857C7.79161 15.0545 8.0367 15.4973 8.291 15.9144C6.82909 15.3623 5.47616 14.2083 4.36153 12.5329ZM21.1816 26.7677V28.2424H8.81834V26.7677C8.81834 25.9547 9.47986 25.293 10.293 25.293H19.7069C20.5201 25.293 21.1816 25.9547 21.1816 26.7677ZM16.4747 23.5352H13.5253V20.3926C14.0084 20.5199 14.5008 20.5861 15 20.5861C15.4992 20.5861 15.9915 20.5199 16.4747 20.3927V23.5352ZM17.0189 18.3016C16.9793 18.3178 16.9414 18.3375 16.905 18.3593C16.2838 18.6683 15.6454 18.8283 15 18.8283C14.3547 18.8283 13.7167 18.6683 13.0957 18.3597C13.0588 18.3374 13.0203 18.3178 12.9805 18.3011C12.2914 17.9368 11.6247 17.3865 10.9941 16.6635C10.9611 16.6163 10.9236 16.5725 10.8822 16.5326C10.2562 15.7894 9.66725 14.8752 9.12942 13.7995C7.51417 10.5692 6.58124 6.32191 6.47507 1.75805H23.5249C23.4185 6.32191 22.4855 10.5695 20.8706 13.7995C20.3327 14.8753 19.7438 15.7894 19.118 16.5326C19.0763 16.5724 19.0386 16.6163 19.0056 16.6637C18.3751 17.387 17.7081 17.937 17.0189 18.3016ZM25.6384 12.5329C24.5237 14.2083 23.1708 15.3623 21.7089 15.9143C21.972 15.4819 22.2168 15.0387 22.4427 14.5857C23.9145 11.6426 24.8558 7.93464 25.1731 3.92326H28.2236C28.0856 7.18646 27.1799 10.2163 25.6384 12.5329Z" fill="#F25822"/>
</g>
<defs>
<clipPath id="clip0_44_1469">
<rect width="30" height="30" fill="white"/>
</clipPath>
</defs>
</svg>
