<svg width="25" height="22" viewBox="0 0 25 22" fill="none" xmlns="http://www.w3.org/2000/svg">
<path d="M16.6599 6.24362C16.1362 6.14459 15.6553 6.48671 15.5556 7.01003C15.4559 7.53334 15.7912 8.04428 16.3006 8.14669C17.8342 8.4528 19.0185 9.66825 19.3186 11.2438C19.4041 11.6974 19.7941 12.0282 20.2432 12.0282C20.3035 12.0282 20.3637 12.0226 20.4251 12.0114C20.9345 11.9067 21.2697 11.3969 21.17 10.8724C20.7219 8.5192 18.9527 6.70167 16.6599 6.24362Z" fill="white" fill-opacity="0.45"/>
<path d="M16.5915 2.32216C16.3461 2.28615 16.0996 2.36043 15.9035 2.52024C15.7019 2.68229 15.5759 2.91638 15.5486 3.1786C15.4905 3.70867 15.8641 4.18809 16.3811 4.24774C19.9469 4.65514 22.7185 7.49905 23.1194 11.1611C23.1731 11.6518 23.5752 12.0221 24.055 12.0221C24.0911 12.0221 24.1262 12.0198 24.1623 12.0153C24.4132 11.9872 24.6367 11.86 24.7944 11.6574C24.9511 11.4549 25.0223 11.2028 24.9938 10.9451C24.4943 6.37589 21.0402 2.82972 16.5915 2.32216Z" fill="white" fill-opacity="0.45"/>
<path fill-rule="evenodd" clip-rule="evenodd" d="M9.94108 11.4859C14.329 15.9771 15.3245 10.7812 18.1183 13.6396C20.8118 16.3964 22.3599 16.9488 18.9473 20.4417C18.5198 20.7934 15.8039 25.0247 6.25925 15.2555C-3.28658 5.48512 0.843964 2.7017 1.18758 2.26418C4.60845 -1.23837 5.13864 0.355788 7.83211 3.11262C10.626 5.97219 5.55311 6.99467 9.94108 11.4859Z" fill="white"/>
</svg>
