<svg width="29" height="32" viewBox="0 0 29 32" fill="none" xmlns="http://www.w3.org/2000/svg">
<path fill-rule="evenodd" clip-rule="evenodd" d="M20.1328 0C25.0361 0 28.33 3.3578 28.33 8.35474V22.6968C28.33 27.7374 25.1375 31.0156 20.1967 31.0468L8.19878 31.0515C3.29542 31.0515 0 27.6937 0 22.6968V8.35474C0 3.31257 3.19249 0.0358706 8.13328 0.00623837L20.1312 0H20.1328ZM20.1328 2.33939L8.14107 2.34563C4.51034 2.36746 2.33939 4.61327 2.33939 8.35474V22.6968C2.33939 26.4632 4.53062 28.7121 8.19722 28.7121L20.1889 28.7074C23.8197 28.6856 25.9906 26.4367 25.9906 22.6968V8.35474C25.9906 4.58832 23.8009 2.33939 20.1328 2.33939ZM19.8319 21.0135C20.4776 21.0135 21.0016 21.5375 21.0016 22.1832C21.0016 22.8288 20.4776 23.3529 19.8319 23.3529H8.57168C7.92601 23.3529 7.40198 22.8288 7.40198 22.1832C7.40198 21.5375 7.92601 21.0135 8.57168 21.0135H19.8319ZM19.8319 14.4842C20.4776 14.4842 21.0016 15.0083 21.0016 15.6539C21.0016 16.2996 20.4776 16.8236 19.8319 16.8236H8.57168C7.92601 16.8236 7.40198 16.2996 7.40198 15.6539C7.40198 15.0083 7.92601 14.4842 8.57168 14.4842H19.8319ZM12.8679 7.97014C13.5136 7.97014 14.0376 8.49416 14.0376 9.13984C14.0376 9.78551 13.5136 10.3095 12.8679 10.3095H8.57121C7.92554 10.3095 7.40151 9.78551 7.40151 9.13984C7.40151 8.49416 7.92554 7.97014 8.57121 7.97014H12.8679Z" fill="#F25822"/>
</svg>
