<svg width="33" height="30" viewBox="0 0 33 30" fill="none" xmlns="http://www.w3.org/2000/svg">
<path fill-rule="evenodd" clip-rule="evenodd" d="M24.0347 0C29.1459 0 33 4.17028 33 9.70047V20.242C33 23.0724 31.9993 25.6295 30.1804 27.4437C28.5488 29.0692 26.4322 29.9302 24.0593 29.9302H8.93609C6.56777 29.9302 4.4527 29.0707 2.81958 27.4437C1.00074 25.6295 0 23.0724 0 20.242V9.70047C0 4.17028 3.85409 0 8.96526 0H24.0347ZM24.0347 2.30233H8.96526C5.10502 2.30233 2.30233 5.41354 2.30233 9.70047V20.242C2.30233 22.4569 3.06363 24.4353 4.44502 25.8121C5.63609 27.0017 7.19093 27.6279 8.9407 27.6279H24.0347C24.0378 27.6248 24.0501 27.6279 24.0593 27.6279C25.8106 27.6279 27.3639 27.0017 28.555 25.8121C29.9379 24.4353 30.6977 22.4569 30.6977 20.242V9.70047C30.6977 5.41354 27.895 2.30233 24.0347 2.30233ZM26.4537 9.407C26.8543 9.89969 26.7791 10.6242 26.2864 11.0263L19.4654 16.5703C18.6028 17.2549 17.5714 17.5971 16.5414 17.5971C15.5146 17.5971 14.4908 17.2579 13.6344 16.5795L6.75042 11.0294C6.25465 10.6303 6.17791 9.9043 6.57544 9.41006C6.97605 8.91737 7.70051 8.83909 8.19475 9.23662L15.0726 14.7806C15.9367 15.4652 17.1539 15.4652 18.0241 14.7745L24.8329 9.23969C25.3271 8.83602 26.0516 8.91276 26.4537 9.407Z" fill="#F25822"/>
</svg>
