<svg width="20" height="20" viewBox="0 0 20 20" fill="none" xmlns="http://www.w3.org/2000/svg">
<path d="M12.4182 3.48991C11.9421 3.40197 11.5049 3.70576 11.4143 4.17044C11.3237 4.63511 11.6284 5.0888 12.0915 5.17973C13.4858 5.45154 14.5623 6.53079 14.8352 7.92981C14.9129 8.33253 15.2674 8.62633 15.6757 8.62633C15.7305 8.62633 15.7853 8.62133 15.8411 8.61134C16.3041 8.5184 16.6089 8.06572 16.5183 7.60004C16.1109 5.5105 14.5026 3.89663 12.4182 3.48991Z" fill="#F25822"/>
<path d="M12.3559 0.00792968C12.1329 -0.024048 11.9088 0.041906 11.7305 0.183807C11.5473 0.327707 11.4327 0.535562 11.4078 0.768399C11.3551 1.23907 11.6947 1.66477 12.1647 1.71774C15.4063 2.07948 17.9259 4.60472 18.2904 7.85645C18.3392 8.29215 18.7047 8.62092 19.1409 8.62092C19.1738 8.62092 19.2057 8.61892 19.2385 8.61493C19.4666 8.58994 19.6698 8.47702 19.8132 8.29715C19.9556 8.11727 20.0203 7.89343 19.9944 7.66459C19.5403 3.60742 16.4002 0.458615 12.3559 0.00792968Z" fill="#F25822"/>
<path fill-rule="evenodd" clip-rule="evenodd" d="M4.4581 0.000517055C5.52735 0.0148759 6.28932 0.816098 7.25328 1.82983C7.49164 2.07967 7.74914 2.35249 8.03727 2.63967C9.43391 4.03726 9.03665 5.17735 8.71597 6.09249C8.36753 7.0909 8.06599 7.95243 9.87137 9.75782C11.6768 11.5632 12.5373 11.2617 13.5348 10.9103C14.4509 10.5906 15.5881 10.1905 16.9876 11.5881C17.2719 11.8724 17.5399 12.127 17.7888 12.3635C18.8064 13.3322 19.6105 14.0971 19.624 15.1692C19.6344 16.0824 19.0792 17.0148 17.7084 18.3856L17.1015 17.9739L17.6156 18.4746C17.3121 18.7857 16.5051 19.6147 14.9247 19.6242H14.896C12.5105 19.6242 9.4004 17.725 5.65179 13.9774C1.88787 10.2144 -0.0141983 7.09473 7.97895e-05 4.70447C0.00877577 3.125 0.836801 2.31612 1.14791 2.01267L1.17446 1.98367L1.23885 1.91886C2.61251 0.545195 3.55636 -0.0195853 4.4581 0.000517055ZM4.43991 1.4364H4.43225C4.00238 1.4364 3.34956 1.86716 2.43908 2.75157L2.25625 2.93111L2.25832 2.93067C2.25832 2.93067 2.2427 2.94859 2.21607 2.97575L2.15207 3.0398C1.92041 3.26476 1.44083 3.73285 1.43599 4.71212C1.42838 6.08196 2.32916 8.62538 6.66648 12.9617C10.9827 17.2771 13.5223 18.1884 14.896 18.1884H14.9161C15.8954 18.1826 16.3625 17.703 16.5875 17.4723C16.6554 17.4025 16.711 17.3498 16.7502 17.3182C17.7046 16.3581 18.1928 15.6449 18.188 15.1864C18.1823 14.7193 17.6012 14.1679 16.7981 13.403C16.5425 13.1609 16.2649 12.8957 15.972 12.6028C15.2119 11.8456 14.8376 11.9748 14.0096 12.2658C12.8657 12.6669 11.2986 13.2164 8.85668 10.7725C6.41377 8.33055 6.96132 6.76352 7.36049 5.61865C7.64958 4.79158 7.78168 4.41538 7.02258 3.65532C6.72583 3.35857 6.45876 3.07713 6.21274 2.81868C5.45268 2.02032 4.90418 1.4431 4.43991 1.4364ZM12.6801 3.40595C14.6721 3.79268 16.2104 5.33003 16.5981 7.32304C16.6737 7.7136 16.42 8.0898 16.0314 8.16542C15.9845 8.17404 15.9385 8.17882 15.8926 8.17882C15.5556 8.17882 15.256 7.94142 15.189 7.59873C14.9133 6.18199 13.8211 5.08976 12.4063 4.81503C12.0167 4.73941 11.763 4.36321 11.8386 3.9736C11.9143 3.584 12.2972 3.32937 12.6801 3.40595ZM12.6227 0.00597341C16.5264 0.43961 19.558 3.46741 19.9955 7.37013C20.0395 7.76452 19.7562 8.11967 19.3627 8.1637C19.3359 8.16657 19.3082 8.16848 19.2814 8.16848C18.9205 8.16848 18.6103 7.89758 18.5692 7.53095C18.2064 4.29926 15.6965 1.79125 12.4638 1.43228C12.0704 1.38825 11.7861 1.03407 11.8301 0.639676C11.8732 0.246244 12.2245 -0.0438038 12.6227 0.00597341Z" fill="#F25822"/>
</svg>
