<svg width="20" height="20" viewBox="0 0 20 20" fill="none" xmlns="http://www.w3.org/2000/svg">
<path d="M19.4376 0.58C18.9374 0.0687911 18.1971 -0.120286 17.5068 0.0797955L1.41019 4.7307C0.681896 4.93278 0.165684 5.51002 0.0266274 6.24232C-0.115431 6.98862 0.380772 7.93701 1.02904 8.33317L6.0621 11.4064C6.57831 11.7226 7.24458 11.6435 7.67176 11.2154L13.4351 5.45199C13.7252 5.15087 14.2054 5.15087 14.4956 5.45199C14.7857 5.74111 14.7857 6.21231 14.4956 6.51243L8.72219 12.2758C8.29401 12.704 8.21398 13.3682 8.52911 13.8854L11.6044 18.9375C11.9645 19.5368 12.5848 19.8779 13.265 19.8779C13.3451 19.8779 13.4351 19.8779 13.5151 19.8669C14.2955 19.7679 14.9157 19.2366 15.1458 18.4863L19.9178 2.51079C20.1279 1.83051 19.9378 1.09021 19.4376 0.58Z" fill="#818286"/>
<path opacity="0.4" d="M7.45666 17.1507C7.74878 17.4439 7.74878 17.9191 7.45666 18.2122L6.0901 19.5777C5.94404 19.7248 5.75196 19.7978 5.55988 19.7978C5.3678 19.7978 5.17572 19.7248 5.02966 19.5777C4.73654 19.2846 4.73654 18.8104 5.02966 18.5173L6.39522 17.1507C6.68834 16.8586 7.16354 16.8586 7.45666 17.1507ZM6.67264 13.3612C6.96475 13.6543 6.96475 14.1295 6.67264 14.4226L5.30608 15.7882C5.16002 15.9353 4.96794 16.0083 4.77586 16.0083C4.58378 16.0083 4.3917 15.9353 4.24564 15.7882C3.95252 15.4951 3.95252 15.0209 4.24564 14.7278L5.6112 13.3612C5.90432 13.0691 6.37952 13.0691 6.67264 13.3612ZM2.90989 12.1683C3.20201 12.4614 3.20201 12.9366 2.90989 13.2297L1.54334 14.5953C1.39728 14.7424 1.2052 14.8154 1.01312 14.8154C0.82104 14.8154 0.628961 14.7424 0.482902 14.5953C0.189782 14.3022 0.189782 13.828 0.482902 13.5349L1.84846 12.1683C2.14158 11.8762 2.61678 11.8762 2.90989 12.1683Z" fill="#818286"/>
</svg>
