<svg width="42" height="42" viewBox="0 0 42 42" fill="none" xmlns="http://www.w3.org/2000/svg">
<path d="M25.6264 24.4311C25.043 24.4301 24.4655 24.5444 23.9282 24.7671C23.3909 24.9898 22.9049 25.3163 22.4993 25.7271L17.4588 22.5566C17.8523 21.5571 17.8523 20.4499 17.4588 19.4504L22.4993 16.2799C23.2084 16.9903 24.1475 17.4372 25.1559 17.5441C26.1643 17.651 27.1792 17.4112 28.027 16.8658C28.8749 16.3205 29.5028 15.5034 29.8034 14.5544C30.1041 13.6055 30.0587 12.5837 29.6751 11.6639C29.2914 10.7441 28.5934 9.98355 27.7004 9.51238C26.8075 9.04121 25.7751 8.88872 24.78 9.08101C23.7849 9.27331 22.889 9.79843 22.2456 10.5665C21.6022 11.3346 21.2512 12.2978 21.2529 13.2914C21.2546 13.8224 21.3547 14.3486 21.5481 14.8446L16.5076 18.0151C15.9007 17.4043 15.1217 16.9847 14.2702 16.81C13.4186 16.6353 12.5332 16.7133 11.7272 17.0342C10.9211 17.355 10.2311 17.9041 9.7453 18.6112C9.25949 19.3182 9 20.1512 9 21.0035C9 21.8558 9.25949 22.6887 9.7453 23.3958C10.2311 24.1029 10.9211 24.6519 11.7272 24.9728C12.5332 25.2936 13.4186 25.3717 14.2702 25.197C15.1217 25.0222 15.9007 24.6027 16.5076 23.9919L21.5481 27.1624C21.3547 27.6584 21.2546 28.1846 21.2529 28.7155C21.2529 29.5629 21.5094 30.3913 21.99 31.0959C22.4705 31.8004 23.1536 32.3496 23.9528 32.6739C24.7519 32.9981 25.6313 33.083 26.4797 32.9177C27.3281 32.7524 28.1074 32.3443 28.719 31.7451C29.3307 31.1459 29.7472 30.3825 29.916 29.5514C30.0847 28.7203 29.9981 27.8588 29.6671 27.0759C29.3361 26.293 28.7755 25.6239 28.0563 25.1531C27.337 24.6823 26.4914 24.4311 25.6264 24.4311ZM25.6264 10.7208C26.1454 10.7208 26.6528 10.8715 27.0843 11.154C27.5159 11.4365 27.8522 11.838 28.0508 12.3077C28.2494 12.7774 28.3014 13.2943 28.2002 13.793C28.0989 14.2916 27.849 14.7497 27.482 15.1092C27.115 15.4687 26.6474 15.7135 26.1384 15.8127C25.6294 15.9119 25.1017 15.861 24.6222 15.6664C24.1427 15.4719 23.7329 15.1424 23.4446 14.7196C23.1562 14.2969 23.0023 13.7999 23.0023 13.2914C23.0052 12.6105 23.2826 11.9583 23.7741 11.4768C24.2656 10.9953 24.9314 10.7236 25.6264 10.7208ZM13.3805 23.5742C12.8615 23.5742 12.3541 23.4234 11.9226 23.1409C11.4911 22.8585 11.1547 22.457 10.9561 21.9872C10.7575 21.5175 10.7055 21.0006 10.8068 20.502C10.908 20.0033 11.158 19.5453 11.5249 19.1857C11.8919 18.8262 12.3595 18.5814 12.8685 18.4822C13.3776 18.383 13.9052 18.4339 14.3847 18.6285C14.8642 18.8231 15.274 19.1525 15.5624 19.5753C15.8507 19.998 16.0046 20.4951 16.0046 21.0035C16.0017 21.6844 15.7243 22.3366 15.2328 22.8181C14.7414 23.2996 14.0756 23.5713 13.3805 23.5742ZM25.6264 31.2862C25.1074 31.2862 24.6001 31.1354 24.1686 30.853C23.737 30.5705 23.4007 30.169 23.2021 29.6993C23.0034 29.2296 22.9515 28.7127 23.0527 28.214C23.154 27.7153 23.4039 27.2573 23.7709 26.8978C24.1379 26.5383 24.6055 26.2934 25.1145 26.1942C25.6235 26.0951 26.1512 26.146 26.6307 26.3405C27.1102 26.5351 27.52 26.8646 27.8083 27.2873C28.0967 27.7101 28.2506 28.2071 28.2506 28.7155C28.2477 29.3964 27.9703 30.0487 27.4788 30.5302C26.9873 31.0116 26.3215 31.2834 25.6264 31.2862Z" fill="#595C5E"/>
</svg>
