<svg width="21" height="21" viewBox="0 0 21 21" fill="none" xmlns="http://www.w3.org/2000/svg">
<path d="M2.77809 20.9332C4.15921 20.9332 5.28922 19.8032 5.28922 18.4221V9.63317C5.28922 8.25205 4.15921 7.12205 2.77809 7.12205C1.39697 7.12205 0.266968 8.25205 0.266968 9.63317V18.4221C0.266968 19.8032 1.39697 20.9332 2.77809 20.9332ZM15.3337 14.6554V18.4221C15.3337 19.8032 16.4637 20.9332 17.8448 20.9332C19.226 20.9332 20.356 19.8032 20.356 18.4221V14.6554C20.356 13.2743 19.226 12.1443 17.8448 12.1443C16.4637 12.1443 15.3337 13.2743 15.3337 14.6554ZM10.3115 20.9332C11.6926 20.9332 12.8226 19.8032 12.8226 18.4221V3.35536C12.8226 1.97424 11.6926 0.844238 10.3115 0.844238C8.93035 0.844238 7.80034 1.97424 7.80034 3.35536V18.4221C7.80034 19.8032 8.93035 20.9332 10.3115 20.9332Z" fill="#818286"/>
</svg>
