<svg width="24" height="24" viewBox="0 0 30 29" fill="none" xmlns="http://www.w3.org/2000/svg">
<path d="M23.871 17.7246C23.4827 18.101 23.3042 18.6453 23.3927 19.1792L24.7258 26.5569C24.8382 27.1822 24.5743 27.815 24.051 28.1764C23.5381 28.5513 22.8558 28.5963 22.2965 28.2964L15.655 24.8324C15.4241 24.7095 15.1677 24.6435 14.9053 24.636H14.4989C14.3579 24.657 14.22 24.702 14.094 24.7709L7.45104 28.2514C7.12264 28.4163 6.75076 28.4748 6.38637 28.4163C5.49864 28.2484 4.90632 27.4026 5.05177 26.5104L6.38637 19.1327C6.47484 18.5943 6.29639 18.047 5.90801 17.6646L0.493163 12.4162C0.0403014 11.9768 -0.117151 11.317 0.0897863 10.7217C0.290725 10.1279 0.803569 9.69454 1.42288 9.59707L8.87561 8.5159C9.44244 8.45742 9.94028 8.11253 10.1952 7.60268L13.4792 0.869735C13.5572 0.719781 13.6576 0.581823 13.7791 0.464858L13.9141 0.35989C13.9845 0.281914 14.0655 0.217434 14.1555 0.16495L14.3189 0.104968L14.5739 0H15.2052C15.769 0.0584822 16.2654 0.395879 16.5248 0.899726L19.8523 7.60268C20.0922 8.09303 20.5585 8.43343 21.0969 8.5159L28.5496 9.59707C29.1794 9.68705 29.7058 10.1219 29.9142 10.7217C30.1106 11.323 29.9412 11.9828 29.4793 12.4162L23.871 17.7246Z" fill="#E8E8E8"/>
</svg>
