<svg width="25" height="24" viewBox="0 0 25 24" fill="none" xmlns="http://www.w3.org/2000/svg">
<path fill-rule="evenodd" clip-rule="evenodd" d="M12.7619 2.42384C12.6505 2.42384 12.3765 2.45443 12.2309 2.74561L9.99689 7.21238C9.64332 7.91831 8.96186 8.40891 8.17397 8.52146L3.17255 9.24207C2.84222 9.28978 2.72966 9.53447 2.69541 9.63724C2.66482 9.73634 2.61588 9.98837 2.84344 10.2061L6.45993 13.6807C7.03617 14.2349 7.29798 15.0338 7.16096 15.8156L6.30944 20.7216C6.25684 21.0287 6.44892 21.2073 6.53456 21.2685C6.62509 21.337 6.86733 21.4728 7.16708 21.3162L11.6387 18.9978C12.3434 18.6344 13.1827 18.6344 13.885 18.9978L18.3554 21.315C18.6564 21.4703 18.8986 21.3345 18.9904 21.2685C19.076 21.2073 19.2681 21.0287 19.2155 20.7216L18.3615 15.8156C18.2245 15.0338 18.4863 14.2349 19.0626 13.6807L22.6791 10.2061C22.9078 9.98837 22.8589 9.73511 22.8271 9.63724C22.7941 9.53447 22.6815 9.28978 22.3512 9.24207L17.3498 8.52146C16.5631 8.40891 15.8816 7.91831 15.5281 7.21116L13.2916 2.74561C13.1472 2.45443 12.8732 2.42384 12.7619 2.42384ZM6.88568 23.2223C6.3804 23.2223 5.8788 23.0633 5.44937 22.7501C4.70796 22.2069 4.3446 21.3101 4.50243 20.4072L5.35394 15.5012C5.38575 15.3189 5.32335 15.1341 5.18878 15.0045L1.57229 11.5299C0.906739 10.8925 0.668168 9.95044 0.949559 9.07568C1.2334 8.19113 1.98459 7.55861 2.91073 7.42648L7.91215 6.70588C8.10545 6.67896 8.27184 6.56029 8.35503 6.39145L10.5903 1.92346C11.0026 1.10008 11.8345 0.588684 12.7619 0.588684C13.6892 0.588684 14.5212 1.10008 14.9335 1.92346L17.1699 6.39023C17.2543 6.56029 17.4195 6.67896 17.6116 6.70588L22.613 7.42648C23.5391 7.55861 24.2903 8.19113 24.5742 9.07568C24.8556 9.95044 24.6158 10.8925 23.9502 11.5299L20.3337 15.0045C20.1991 15.1341 20.138 15.3189 20.1698 15.5L21.0225 20.4072C21.1791 21.3113 20.8158 22.2081 20.0731 22.7501C19.3207 23.3018 18.3407 23.3765 17.51 22.9434L13.0408 20.6274C12.8659 20.5369 12.6566 20.5369 12.4817 20.6274L8.01247 22.9446C7.65523 23.1305 7.26985 23.2223 6.88568 23.2223Z" fill="#818286"/>
</svg>
