<svg width="24" height="24" viewBox="0 0 30 29" fill="none" xmlns="http://www.w3.org/2000/svg">
<path d="M23.8658 17.7246C23.4774 18.101 23.299 18.6453 23.3874 19.1792L24.7205 26.5569C24.833 27.1822 24.5691 27.815 24.0457 28.1764C23.5329 28.5513 22.8506 28.5963 22.2913 28.2964L15.6498 24.8324C15.4189 24.7095 15.1624 24.6435 14.9 24.636H14.4936C14.3527 24.657 14.2147 24.702 14.0888 24.7709L7.44579 28.2514C7.11739 28.4163 6.74551 28.4748 6.38112 28.4163C5.49339 28.2484 4.90107 27.4026 5.04652 26.5104L6.38112 19.1327C6.46959 18.5943 6.29115 18.047 5.90276 17.6646L0.487914 12.4162C0.0350524 11.9768 -0.1224 11.317 0.0845373 10.7217C0.285476 10.1279 0.79832 9.69454 1.41763 9.59707L8.87036 8.5159C9.43719 8.45742 9.93503 8.11253 10.19 7.60268L13.474 0.869735C13.5519 0.719781 13.6524 0.581823 13.7739 0.464858L13.9088 0.35989C13.9793 0.281914 14.0603 0.217434 14.1502 0.16495L14.3137 0.104968L14.5686 0H15.1999C15.7638 0.0584822 16.2601 0.395879 16.5195 0.899726L19.847 7.60268C20.0869 8.09303 20.5533 8.43343 21.0916 8.5159L28.5444 9.59707C29.1742 9.68705 29.7005 10.1219 29.9089 10.7217C30.1054 11.323 29.9359 11.9828 29.4741 12.4162L23.8658 17.7246Z" fill="#F6BC23"/>
</svg>
